<svg version="1.1" id="Layer_1" xmlns="http://www.w3.org/2000/svg" xmlns:xlink="http://www.w3.org/1999/xlink" x="0px" y="0px"
	 width="100%" viewBox="0 0 1024 1024" enable-background="new 0 0 1024 1024" xml:space="preserve">
<path fill="#000000" opacity="1.000000" stroke="none" 
	d="
M445.480927,547.594055 
	C412.772186,568.898621 378.197540,551.569763 365.333344,530.183411 
	C366.586670,529.180786 367.459106,530.129028 368.388489,530.772278 
	C391.656250,546.876587 416.566193,540.380920 429.121857,514.893555 
	C435.952667,501.027313 438.591614,485.843597 442.676758,471.121979 
	C447.344910,454.299255 451.919617,437.449036 456.343140,420.560547 
	C459.246094,409.477295 465.370483,402.410828 477.425751,401.137024 
	C485.010956,400.335541 492.505280,398.651947 500.030304,397.307770 
	C508.838928,395.734253 511.942383,397.275024 514.952148,405.628357 
	C521.496399,423.791382 527.844788,442.024994 534.279541,460.227478 
	C534.996582,462.255646 535.754944,464.269226 536.921265,467.456879 
	C539.848877,456.853027 542.492310,447.318634 545.112488,437.777832 
	C548.723328,424.629791 552.200134,411.443207 555.991638,398.347626 
	C557.060913,394.654510 556.448730,393.046997 552.436401,392.906494 
	C547.979553,392.750427 543.534058,392.269684 537.586975,391.816162 
	C553.599731,373.443024 570.928528,357.857056 585.921326,339.865082 
	C590.991882,345.957947 590.830566,346.797577 585.028259,349.306458 
	C583.244812,350.077637 582.114624,351.437195 581.207214,353.087524 
	C579.152161,356.825287 577.810852,361.158508 573.019836,362.614044 
	C572.391541,362.804901 571.565186,363.895630 571.609863,364.513184 
	C572.135742,371.776367 567.891052,378.725616 570.262451,386.111359 
	C570.988342,388.372223 571.763855,390.538879 573.597534,392.134888 
	C575.247498,393.570892 577.014282,395.113098 579.373901,394.325562 
	C581.933655,393.471252 583.463989,391.457275 583.816650,388.772614 
	C584.293579,385.142151 584.595337,381.488831 584.986572,377.846893 
	C585.289612,375.025818 586.182617,372.602142 589.334045,371.864014 
	C593.161438,370.967590 594.181885,367.138336 597.225281,364.007263 
	C604.856323,374.622589 609.054199,386.392883 614.571472,398.041748 
	C609.002869,399.675323 604.565979,397.618652 600.138916,396.948425 
	C595.957886,396.315430 594.344788,397.326904 593.251160,401.500336 
	C585.786865,429.986115 578.055115,458.401947 570.351440,486.824585 
	C569.527222,489.865601 568.493896,492.874756 567.269714,495.777313 
	C564.777954,501.685638 560.392578,505.518250 554.049316,506.868835 
	C544.125610,508.981842 534.216431,511.183258 524.244507,513.043518 
	C516.278809,514.529480 512.754211,512.239136 509.746368,503.727386 
	C503.204254,485.214020 496.994110,466.582092 489.703644,448.339966 
	C489.464722,447.742065 489.176453,447.163849 488.734985,446.186371 
	C486.825714,447.705353 486.826660,449.762756 486.365265,451.512970 
	C481.024689,471.770569 476.226379,492.180206 469.996368,512.189819 
	C465.587311,526.351074 457.928680,538.459412 445.480927,547.594055 
z"/>
<path fill="#000000" opacity="1.000000" stroke="none" 
	d="
M370.258362,449.981140 
	C370.115540,464.422913 372.667114,477.991760 376.551697,491.289856 
	C380.379089,504.392120 386.846832,516.393311 393.982727,528.194641 
	C386.751678,530.404358 385.446808,529.901428 382.288025,524.332581 
	C332.111938,435.874573 381.150391,324.505554 480.494171,302.823547 
	C559.799988,285.514832 633.639221,332.199890 656.540222,404.639587 
	C660.169678,416.120209 662.093323,427.929169 663.096924,439.897705 
	C663.300903,442.329254 663.879028,445.035980 659.881226,445.259674 
	C656.436584,445.452454 655.760193,443.788025 655.543457,440.790558 
	C653.472595,412.151398 644.104980,386.174530 626.569641,363.340210 
	C610.383850,342.263275 589.943542,326.857452 565.169128,316.945068 
	C533.709961,304.358124 501.632477,303.008911 469.879364,313.649506 
	C416.688202,331.473999 384.379883,368.832428 372.593231,423.674866 
	C370.782013,432.102234 369.830261,440.776459 370.258362,449.981140 
z"/>
<path fill="#000000" opacity="1.000000" stroke="none" 
	d="
M454.169769,578.769043 
	C500.739075,598.301208 545.952698,595.915710 588.452820,569.541870 
	C630.804749,543.259827 652.847168,503.849518 655.927917,454.157288 
	C662.796753,452.987488 663.450256,453.411102 663.123169,458.482300 
	C661.744080,479.865356 656.504089,500.196899 646.251404,519.083984 
	C625.377136,557.537720 593.994324,582.919983 551.562073,594.044556 
	C510.159882,604.899170 471.047974,598.492371 434.137939,577.304626 
	C431.503815,575.792603 428.327423,574.894836 426.605560,571.724304 
	C431.693390,569.030334 436.088165,568.120056 441.054565,571.824829 
	C444.874390,574.674255 449.537018,576.393799 454.169769,578.769043 
z"/>
<path fill="#000000" opacity="1.000000" stroke="none" 
	d="
M367.545441,664.434387 
	C363.035522,658.752930 358.758270,653.341431 354.481018,647.929932 
	C354.038208,648.077087 353.595367,648.224243 353.152557,648.371399 
	C353.152557,651.948914 353.156860,655.526489 353.151611,659.104004 
	C353.141602,665.934814 353.043823,672.766846 353.145386,679.595947 
	C353.201965,683.399048 350.721619,683.573792 348.122375,683.247925 
	C345.532776,682.923218 341.258331,685.026855 341.207855,680.059448 
	C341.025482,662.110901 341.136108,644.159424 341.136108,626.286743 
	C348.142944,624.718689 352.819702,625.758179 356.786224,631.647766 
	C362.914429,640.747009 370.064941,649.158875 376.815063,657.836487 
	C377.681641,658.950623 378.283386,660.446716 380.676544,660.772705 
	C380.676544,651.361267 380.665100,642.095642 380.680267,632.829956 
	C380.691803,625.778625 382.649292,624.306641 389.755554,625.597168 
	C392.006073,626.005981 392.296722,627.370300 392.297546,629.155762 
	C392.305206,645.816528 392.321381,662.477234 392.303772,679.138000 
	C392.302032,680.768066 392.510254,682.985474 390.281647,683.088074 
	C386.805634,683.247986 382.933228,684.800598 380.140533,681.040771 
	C376.068726,675.558899 371.903534,670.146362 367.545441,664.434387 
z"/>
<path fill="#000000" opacity="1.000000" stroke="none" 
	d="
M416.518890,639.067505 
	C432.266632,634.044800 445.319672,643.148132 446.232391,659.217834 
	C446.479736,663.572998 445.315186,665.693054 440.442017,665.426331 
	C433.961823,665.071716 427.446838,665.311035 420.947601,665.375854 
	C419.191406,665.393372 417.233612,664.818298 415.835419,666.485901 
	C415.835815,673.827148 427.782501,676.134155 433.983856,671.572693 
	C435.890717,670.170044 437.440674,668.737183 440.020844,670.993042 
	C445.127258,675.457642 445.244110,676.178772 439.684998,680.052917 
	C428.840271,687.610535 412.597778,684.494263 406.139832,673.794312 
	C399.007996,661.977722 403.759888,643.789917 416.518890,639.067505 
M423.584137,657.014954 
	C425.893005,656.989624 428.203583,657.011475 430.510345,656.927795 
	C433.856628,656.806396 434.565430,654.882629 433.107971,652.290283 
	C431.028931,648.592224 427.561127,647.071411 423.473511,647.987183 
	C419.322174,648.917114 415.900482,650.943848 415.608429,655.855042 
	C418.027100,657.467285 420.410645,656.754822 423.584137,657.014954 
z"/>
<path fill="#000000" opacity="1.000000" stroke="none" 
	d="
M498.854919,667.426880 
	C494.421173,678.492798 486.363770,684.327820 476.049347,684.229492 
	C465.352783,684.127502 457.086517,678.895447 453.692841,669.635010 
	C450.218597,660.154724 452.122314,651.502502 459.005035,644.211426 
	C465.422180,637.413635 476.520782,635.620728 485.948486,639.719421 
	C494.971497,643.642151 499.368042,650.803711 499.477448,660.581726 
	C499.501556,662.734802 499.157227,664.891968 498.854919,667.426880 
M483.911652,651.568176 
	C478.553070,647.572388 473.537231,647.164917 469.342438,650.384521 
	C464.471893,654.122803 462.701569,660.286133 464.865845,665.970032 
	C466.771667,670.975159 471.929535,674.417786 476.966766,673.604858 
	C487.823273,671.853027 491.089539,659.309021 483.911652,651.568176 
z"/>
<path fill="#000000" opacity="1.000000" stroke="none" 
	d="
M561.855896,639.550415 
	C567.757324,637.803711 573.279480,637.245056 578.994629,638.535889 
	C587.381409,640.430054 592.003296,645.545288 592.260315,654.248230 
	C592.511169,662.740784 592.309570,671.246033 592.504211,679.741211 
	C592.563965,682.348572 591.702026,683.606873 589.136353,683.306458 
	C586.289429,682.973206 583.163025,684.427368 580.645569,681.746399 
	C579.242310,680.251953 577.824524,681.809692 576.615051,682.437317 
	C573.041199,684.291992 569.247314,684.555237 565.407837,684.080139 
	C557.628296,683.117493 553.024292,678.554688 552.656494,671.712646 
	C552.147888,662.252686 554.958923,658.583557 563.882385,656.323547 
	C569.106506,655.000427 574.493286,656.529663 579.805786,655.215881 
	C580.511353,650.765015 577.508606,649.621216 574.405640,648.747925 
	C570.537781,647.659363 566.702209,648.377625 563.219116,650.056702 
	C559.726257,651.740479 558.112976,650.655457 556.846619,647.311584 
	C555.577393,643.960327 555.571228,641.472534 559.595032,640.373474 
	C560.234802,640.198730 560.843445,639.909912 561.855896,639.550415 
M569.084106,674.588562 
	C572.870728,674.888123 576.379211,674.352783 578.980957,671.207397 
	C580.182373,669.754883 581.106934,668.127747 580.487366,666.192932 
	C579.751099,663.893738 577.613708,664.309326 575.873657,664.190002 
	C574.058960,664.065674 572.227356,664.124207 570.405579,664.179688 
	C567.130981,664.279419 564.298828,665.512634 563.660828,668.906860 
	C563.047180,672.171021 565.795532,673.396179 569.084106,674.588562 
z"/>
<path fill="#000000" opacity="1.000000" stroke="none" 
	d="
M616.285767,661.302368 
	C616.307007,667.754578 616.288330,673.743835 616.360779,679.731934 
	C616.429504,685.413940 612.128418,682.937134 609.506897,683.364258 
	C606.835510,683.799377 604.598877,683.536560 604.647583,679.716431 
	C604.796021,668.073303 604.642273,656.426331 604.775696,644.782837 
	C604.800842,642.587769 603.411987,639.146179 607.272522,638.820740 
	C610.913879,638.513855 615.400635,636.604980 617.422729,642.306641 
	C622.121033,638.214478 627.476318,637.063416 633.354309,637.825562 
	C640.627014,638.768616 645.307556,643.476196 646.369690,650.790771 
	C647.789001,660.565979 646.682251,670.391724 647.096069,680.184692 
	C647.192566,682.467224 646.221558,683.608948 643.846558,683.467957 
	C642.354065,683.379272 640.827271,683.231689 639.362671,683.440002 
	C635.992249,683.919128 634.935181,682.423767 634.978210,679.236755 
	C635.076904,671.920471 635.123840,664.596252 634.885681,657.285217 
	C634.732605,652.583069 632.186401,649.422119 627.351746,648.760742 
	C622.646912,648.117188 619.418274,650.351624 617.336365,654.514465 
	C616.322876,656.541077 616.278931,658.672241 616.285767,661.302368 
z"/>
<path fill="#000000" opacity="1.000000" stroke="none" 
	d="
M508.880920,638.624390 
	C513.550232,637.704895 515.543030,639.804565 516.880798,643.684448 
	C519.467102,651.185669 522.454834,658.548584 526.584045,666.084106 
	C529.010437,659.652344 531.428467,653.217468 533.865417,646.789734 
	C537.342651,637.617981 537.789795,637.369995 547.830139,638.893799 
	C548.884644,640.148682 548.203369,641.389282 547.717896,642.601990 
	C542.894592,654.649658 537.869446,666.621643 533.326050,678.773682 
	C531.727417,683.049438 528.971375,683.374207 525.208252,683.434998 
	C521.526672,683.494446 519.504333,682.343140 518.133728,678.764709 
	C513.673218,667.118591 508.857910,655.608459 504.200195,644.037598 
	C503.596252,642.537231 502.617432,641.092651 503.052124,639.373840 
	C504.831085,638.138489 506.719482,638.838013 508.880920,638.624390 
z"/>
<path fill="#000000" opacity="1.000000" stroke="none" 
	d="
M679.116943,683.437988 
	C667.513733,685.734619 661.653625,681.335571 661.084045,670.059937 
	C660.824036,664.912476 660.937866,659.744385 660.948242,654.585754 
	C660.953796,651.803101 660.997559,649.320862 657.161194,648.846252 
	C654.897522,648.566162 654.896790,646.243713 654.976807,644.399292 
	C655.059631,642.489136 654.314087,639.590881 656.685974,639.190002 
	C661.002441,638.460571 661.092102,635.683350 660.778992,632.610046 
	C660.290283,627.813721 662.587524,626.754639 666.947693,626.687805 
	C671.603516,626.616455 672.943481,628.624878 672.303467,632.704346 
	C671.493408,637.867737 674.169434,639.206116 678.623535,638.642944 
	C682.986877,638.091309 684.544922,639.926636 684.394409,644.300720 
	C684.283325,647.528992 683.440247,648.600159 680.081116,648.511902 
	C673.093384,648.328369 672.391724,649.223572 672.345520,656.173950 
	C672.324463,659.335754 672.272705,662.499634 672.354736,665.659424 
	C672.531738,672.475525 674.297485,673.826294 680.905823,672.368591 
	C681.520630,672.232971 682.165100,672.232117 682.734375,672.174866 
	C685.521057,678.916809 684.835693,681.208984 679.116943,683.437988 
z"/>
<path fill="#000000" opacity="1.000000" stroke="none" 
	d="
M443.932373,705.203125 
	C444.251068,703.476807 444.443054,701.941162 446.264038,702.136292 
	C447.666687,702.286560 448.038666,703.571045 448.048828,704.767151 
	C448.087006,709.258728 448.079742,713.751709 448.000061,718.242554 
	C447.979523,719.399719 447.691406,720.621338 446.310852,720.999939 
	C444.988495,721.362488 444.064484,720.612305 443.314423,719.669922 
	C441.050293,716.825256 438.821075,713.952881 436.244781,710.665894 
	C434.766052,713.272949 435.517059,715.741821 435.260834,718.038574 
	C435.114441,719.350952 435.185211,720.882996 433.308960,720.941956 
	C431.779327,720.990051 431.302734,719.695618 431.277740,718.566040 
	C431.171204,713.755981 431.186768,708.941895 431.252289,704.130554 
	C431.265930,703.129211 431.763947,702.170654 432.944305,701.956970 
	C434.266754,701.717651 435.167633,702.488953 435.927551,703.403931 
	C438.236542,706.184021 439.907959,709.497498 443.001740,712.105835 
	C444.315765,709.860291 443.603943,707.656616 443.932373,705.203125 
z"/>
<path fill="#000000" opacity="1.000000" stroke="none" 
	d="
M546.128784,713.632202 
	C544.717346,719.080750 541.397278,721.328003 536.227844,721.344666 
	C531.676025,721.359314 528.062439,720.011963 526.323547,715.488159 
	C524.660950,711.162842 525.704285,707.322205 528.884705,704.101074 
	C532.120056,700.824341 536.191223,700.990173 539.989685,702.448975 
	C544.718262,704.264954 546.518860,708.249451 546.128784,713.632202 
M538.531189,705.833801 
	C537.407410,705.665649 536.218140,705.174500 535.171570,705.386841 
	C531.256348,706.181213 529.657593,708.845886 530.275818,712.658081 
	C530.880920,716.389099 533.390076,718.043579 537.046692,717.494934 
	C540.354126,716.998779 542.409912,713.304932 541.608826,709.885315 
	C541.249023,708.349426 540.304626,707.249634 538.531189,705.833801 
z"/>
<path fill="#000000" opacity="1.000000" stroke="none" 
	d="
M365.929688,711.019531 
	C365.803040,701.829468 370.681702,698.883118 378.559418,702.970886 
	C382.311646,704.917847 384.252563,708.222168 383.845795,712.310547 
	C383.402649,716.765198 380.904999,719.979431 376.248718,721.020081 
	C367.199280,723.042358 365.654785,721.614319 365.929688,711.019531 
M378.563477,708.018005 
	C376.712555,706.150757 374.451630,704.607605 371.910248,705.744202 
	C368.992615,707.049133 370.358826,710.147278 370.176727,712.478088 
	C370.043823,714.179016 369.438812,716.453369 371.586029,717.352478 
	C373.773865,718.268677 375.803223,717.247253 377.547241,715.796814 
	C379.946655,713.801331 380.277496,711.381409 378.563477,708.018005 
z"/>
<path fill="#000000" opacity="1.000000" stroke="none" 
	d="
M655.856018,716.185608 
	C654.203430,714.327209 653.371765,712.202148 651.104553,711.047729 
	C649.053406,714.041748 651.998718,718.362366 648.755127,720.985718 
	C645.964294,720.218872 646.778503,718.051147 646.713684,716.418457 
	C646.568848,712.768127 646.623413,709.109497 646.618896,705.454224 
	C646.617126,704.025269 646.040222,702.257874 648.107239,701.751770 
	C649.866882,701.321045 650.835876,702.620361 651.733032,703.846375 
	C653.677551,706.503479 655.602051,709.175232 657.876709,712.312622 
	C659.663147,709.558594 658.822327,707.062927 659.047363,704.763794 
	C659.180542,703.403076 659.143127,701.887573 660.901611,701.746765 
	C663.040222,701.575439 663.187256,703.291077 663.215027,704.811157 
	C663.287964,708.797729 663.324951,712.786621 663.268433,716.773010 
	C663.248352,718.192200 663.750854,720.009827 662.070801,720.788391 
	C660.090210,721.706360 659.113953,719.898193 657.989380,718.765076 
	C657.290466,718.060852 656.715698,717.233398 655.856018,716.185608 
z"/>
<path fill="#000000" opacity="1.000000" stroke="none" 
	d="
M623.462219,704.425903 
	C627.858521,700.683594 632.355225,700.662598 636.634338,703.412903 
	C640.268250,705.748474 641.815613,709.462219 640.788208,713.807861 
	C639.826355,717.876099 637.279297,720.604675 633.002808,721.186890 
	C628.847656,721.752625 624.876831,721.201843 622.506287,717.209900 
	C619.998596,712.987000 619.945740,708.710938 623.462219,704.425903 
M625.187622,712.263611 
	C625.832214,715.826355 627.641724,718.207764 631.570862,717.400330 
	C635.020142,716.691406 637.160034,714.422913 636.765381,710.668030 
	C636.435547,707.530518 634.642883,705.382935 631.322144,705.325439 
	C627.308533,705.255920 625.328430,707.552490 625.187622,712.263611 
z"/>
<path fill="#000000" opacity="1.000000" stroke="none" 
	d="
M342.336609,720.546997 
	C342.845581,713.860840 346.812073,708.751526 349.118317,702.976318 
	C349.954681,700.881958 352.193420,700.851501 353.270172,703.135681 
	C355.932800,708.784180 359.225616,714.180786 360.726471,720.194336 
	C359.787323,721.311218 358.797943,721.432007 357.921906,720.773926 
	C351.310303,715.807800 351.333344,715.807739 344.477966,720.746521 
	C344.050842,721.054260 343.236389,720.824341 342.336609,720.546997 
z"/>
<path fill="#000000" opacity="1.000000" stroke="none" 
	d="
M419.297302,703.957825 
	C421.699951,709.584106 423.972412,714.869568 426.417297,720.556030 
	C421.725220,722.102539 420.814331,716.584900 416.721527,716.717651 
	C412.671600,716.849060 411.394562,720.938171 407.928619,721.071228 
	C406.388794,718.433777 408.423523,716.762939 409.107697,714.887329 
	C410.412872,711.309326 411.830963,707.756592 413.470459,704.321350 
	C414.864777,701.399841 416.779083,699.858765 419.297302,703.957825 
z"/>
<path fill="#000000" opacity="1.000000" stroke="none" 
	d="
M508.935974,703.689819 
	C511.948486,701.063965 515.070190,701.386047 518.172668,702.288025 
	C519.466248,702.664062 520.693298,703.604675 520.113098,705.243164 
	C519.540344,706.860596 518.168762,706.877136 516.800476,706.279297 
	C514.951294,705.471436 513.136047,704.596313 511.653015,706.828857 
	C512.263123,709.263367 514.313965,709.269775 515.949341,709.891235 
	C519.104187,711.090088 521.860107,712.773804 521.050537,716.734924 
	C520.278931,720.510437 517.419922,721.617432 513.871582,721.357971 
	C512.714294,721.273376 511.488861,721.331238 510.423767,720.956726 
	C508.765015,720.373474 506.285614,719.828308 506.916748,717.534241 
	C507.671814,714.789795 509.762939,716.259460 511.375916,717.012024 
	C513.168640,717.848328 514.844238,718.013184 516.673340,716.101013 
	C514.448547,711.760742 503.480835,712.838867 508.935974,703.689819 
z"/>
<path fill="#000000" opacity="1.000000" stroke="none" 
	d="
M675.803833,705.441162 
	C674.047607,706.168640 673.121338,707.099609 674.587585,708.469116 
	C675.270752,709.107239 676.328735,709.413940 677.269592,709.693481 
	C680.188904,710.561157 683.142395,711.319763 683.492859,715.125427 
	C683.711853,717.503967 683.006714,719.548645 680.764709,720.490967 
	C677.388977,721.909790 673.949524,721.748413 670.747925,719.830872 
	C669.757874,719.237854 668.746033,718.348206 669.424805,716.999939 
	C670.084167,715.690186 671.258362,715.840088 672.428894,716.361572 
	C673.334656,716.765198 674.226501,717.267456 675.179443,717.481689 
	C676.540588,717.787659 677.986389,717.674133 678.423279,716.049988 
	C678.808899,714.616516 677.602051,714.014587 676.511414,713.562439 
	C675.595825,713.182983 674.633301,712.908386 673.677795,712.635132 
	C670.739441,711.794617 669.075134,710.046204 669.572754,706.816956 
	C670.036987,703.804321 671.820801,701.920837 674.863098,701.836487 
	C677.795471,701.755066 681.216736,701.176147 682.465149,705.180298 
	C680.189636,707.391052 678.163452,704.756470 675.803833,705.441162 
z"/>
<path fill="#000000" opacity="1.000000" stroke="none" 
	d="
M581.740723,707.977478 
	C581.760864,706.540955 581.739685,705.542236 581.802612,704.548828 
	C581.879578,703.331848 582.152893,702.115845 583.673035,702.086060 
	C585.323364,702.053711 585.378113,703.399231 585.402344,704.561096 
	C585.461121,707.382568 585.535889,710.208984 585.436890,713.027527 
	C585.237122,718.717773 583.141968,721.113708 578.366699,721.322632 
	C572.717102,721.569763 569.470703,718.916260 569.002930,713.364685 
	C568.766663,710.561462 568.914490,707.720459 568.987732,704.899048 
	C569.022583,703.556335 569.230469,702.016663 571.056091,702.114563 
	C572.773254,702.206665 572.995972,703.714539 573.054016,705.061523 
	C573.146912,707.217896 573.137268,709.379395 573.138855,711.538757 
	C573.140930,714.434448 573.812866,717.218811 577.165527,717.370972 
	C580.540283,717.524048 581.405334,714.741943 581.662964,711.904419 
	C581.767761,710.749451 581.716736,709.580322 581.740723,707.977478 
z"/>
<path fill="#000000" opacity="1.000000" stroke="none" 
	d="
M480.861633,706.578613 
	C480.289398,710.721619 483.206177,709.364197 485.069275,709.677307 
	C486.571075,709.929688 488.925507,709.181885 488.835571,711.672974 
	C488.760895,713.742981 486.612732,713.094421 485.235199,713.302063 
	C484.909241,713.351135 484.570862,713.311462 484.239410,713.331848 
	C482.581177,713.433716 480.499329,713.315369 480.656433,715.683716 
	C480.812866,718.041565 483.008728,717.427490 484.567535,717.682007 
	C486.638184,718.019958 489.302765,716.583313 490.923004,720.162598 
	C486.530823,722.040466 482.218079,721.440674 477.938843,720.818176 
	C477.514069,720.756348 476.922638,719.822205 476.907196,719.278870 
	C476.761078,714.133728 476.677063,708.985596 476.683838,703.838440 
	C476.685730,702.416199 477.837219,701.883545 479.101593,701.848999 
	C482.090729,701.767090 485.082123,701.727783 488.072235,701.743225 
	C489.304871,701.749573 490.523499,702.131226 490.440979,703.654236 
	C490.356812,705.207703 489.008820,705.208557 487.839478,705.345581 
	C485.576019,705.610840 483.157806,704.758911 480.861633,706.578613 
z"/>
<path fill="#000000" opacity="1.000000" stroke="none" 
	d="
M459.841217,716.171753 
	C462.432587,718.388245 464.752625,717.511780 467.121307,716.488220 
	C468.470428,715.905273 469.903870,715.974182 470.509552,717.505371 
	C471.159882,719.149597 469.768097,719.844971 468.584534,720.483948 
	C464.946381,722.448120 458.356384,721.260254 455.616180,718.161011 
	C452.796173,714.971497 452.754242,708.773926 455.528015,705.112793 
	C458.243469,701.528687 463.961823,700.228027 468.217682,702.300720 
	C469.542053,702.945740 471.258331,703.715759 470.548279,705.556641 
	C469.830383,707.417969 468.197235,707.028931 466.762390,706.221802 
	C463.334503,704.293701 460.697723,705.453308 458.530853,708.332031 
	C456.384766,711.183105 457.507202,713.630554 459.841217,716.171753 
z"/>
<path fill="#000000" opacity="1.000000" stroke="none" 
	d="
M388.667908,707.277710 
	C388.190887,705.344666 385.716583,703.481995 388.248535,702.264038 
	C390.880585,700.998108 391.408539,703.781799 392.167114,705.511169 
	C393.353790,708.216370 394.424500,710.972351 395.690765,714.064392 
	C399.906158,710.629089 398.476440,703.515686 405.914642,701.256470 
	C403.649506,708.725830 401.072266,714.691895 397.902527,720.296814 
	C396.681061,722.456665 394.678009,720.855713 393.812256,718.975708 
	C392.083496,715.221558 390.458710,711.419495 388.667908,707.277710 
z"/>
<path fill="#000000" opacity="1.000000" stroke="none" 
	d="
M593.816650,705.470337 
	C591.961609,705.201721 590.160095,705.208862 590.518860,703.006653 
	C590.758057,701.538574 592.191589,701.521057 593.341309,701.686707 
	C597.403015,702.272095 601.782349,700.507751 605.655090,702.774780 
	C605.486023,703.634033 605.470947,704.208130 605.354980,704.229309 
	C598.869141,705.413025 600.005066,710.271484 600.058594,714.784851 
	C600.083801,716.914429 601.073669,720.588623 598.275452,720.700867 
	C594.724060,720.843445 596.333801,716.995972 595.869141,714.819275 
	C595.213257,711.746887 597.370178,708.166382 593.816650,705.470337 
z"/>
<path fill="#000000" opacity="1.000000" stroke="none" 
	d="
M564.068604,718.489807 
	C564.781555,719.949280 564.389893,720.761536 563.218140,721.047485 
	C562.423889,721.241394 561.575806,721.236389 560.749695,721.274841 
	C551.638367,721.699341 551.615662,721.697205 551.516113,712.725830 
	C551.486572,710.067139 551.601746,707.405762 551.692566,704.747070 
	C551.738403,703.406982 551.765503,701.804016 553.634216,701.905457 
	C555.506104,702.007019 555.292725,703.681274 555.316589,704.972351 
	C555.359619,707.299805 555.503052,709.648071 555.266907,711.953064 
	C554.827820,716.239990 556.424133,718.239624 560.873718,717.734619 
	C561.815857,717.627686 562.815002,718.024292 564.068604,718.489807 
z"/>
<path fill="#000000" opacity="1.000000" stroke="none" 
	d="
M612.266418,720.705627 
	C610.022034,714.990417 611.462646,709.338684 611.101074,703.775269 
	C611.046387,702.933044 611.570435,702.182434 612.439575,701.876892 
	C613.346619,701.557983 614.017639,701.980713 614.552429,702.701355 
	C615.967346,704.607666 615.228638,719.114258 613.583679,720.856201 
	C613.421021,721.028442 612.955383,720.914673 612.266418,720.705627 
z"/>
</svg>